<svg width="616" height="116" viewBox="0 0 616 116" fill="none" xmlns="http://www.w3.org/2000/svg">
<path d="M88.7461 107.789C79.5723 111.098 69.9723 112.752 59.9463 112.752C21.4964 112.752 2.27148 94.0785 2.27148 56.7314C2.27148 21.3896 21.0703 3.71875 58.668 3.71875C68.9447 3.71875 78.9707 5.22266 88.7461 8.23047V14.998C78.9707 11.9902 69.446 10.4863 60.1719 10.4863C26.8353 10.4863 10.167 25.9014 10.167 56.7314C10.167 89.5667 26.359 105.984 58.7432 105.984C65.3604 105.984 72.7295 104.882 80.8506 102.676V63.123H88.7461V107.789ZM144.691 58.2354L102.356 4.4707H111.756L149.354 52.2949L186.951 4.4707H196.351L154.091 58.2354L196.351 112H186.951L149.354 64.1758L111.756 112H102.356L144.691 58.2354Z" fill="#414F6B" fill-opacity="0.5"/>
<path d="M210.262 108.24V99.9688C221.541 103.979 233.973 105.984 247.559 105.984C270.067 105.984 281.321 97.4622 281.321 80.418C281.321 67.8854 274.002 61.6191 259.364 61.6191H237.257C217.255 61.6191 207.254 52.5957 207.254 34.5488C207.254 13.9954 221.917 3.71875 251.243 3.71875C263.274 3.71875 274.93 5.22266 286.209 8.23047V15.75C274.93 12.2409 263.274 10.4863 251.243 10.4863C227.181 10.4863 215.149 18.5072 215.149 34.5488C215.149 47.5827 222.519 54.0996 237.257 54.0996H259.364C279.266 54.0996 289.217 62.8724 289.217 80.418C289.217 101.974 275.331 112.752 247.559 112.752C233.973 112.752 221.541 111.248 210.262 108.24ZM314.407 57.9346C314.407 89.9678 329.521 105.984 359.75 105.984C389.427 105.984 404.266 89.9678 404.266 57.9346C404.266 26.3024 389.427 10.4863 359.75 10.4863C329.521 10.4863 314.407 26.3024 314.407 57.9346ZM305.76 58.3857C305.76 21.9411 323.757 3.71875 359.75 3.71875C395.192 3.71875 412.913 21.9411 412.913 58.3857C412.913 94.6299 395.192 112.752 359.75 112.752C323.757 112.752 305.76 94.6299 305.76 58.3857ZM433.291 70.4922V4.4707H441.187V70.4922C441.187 94.1536 452.967 105.984 476.528 105.984C500.09 105.984 511.87 94.1536 511.87 70.4922V4.4707H519.766V70.4922C519.766 98.6654 505.353 112.752 476.528 112.752C447.703 112.752 433.291 98.6654 433.291 70.4922ZM551.724 4.4707V105.232H613.985V112H543.828V4.4707H551.724Z" fill="#414F6B"/>
</svg>
